<svg width="22" height="22" viewBox="0 0 22 22" fill="none" xmlns="http://www.w3.org/2000/svg">
<path d="M7.44645 1H2.80492C1.80809 1 1 1.80809 1 2.80492V7.44645C1 8.44328 1.80809 9.25137 2.80492 9.25137H7.44645C8.44328 9.25137 9.25137 8.44328 9.25137 7.44645V2.80492C9.25137 1.80809 8.44328 1 7.44645 1Z" stroke="#402110" stroke-width="2" stroke-linecap="round" stroke-linejoin="round"/>
<path d="M19.1951 1H14.5536C13.5567 1 12.7487 1.80809 12.7487 2.80492V7.44645C12.7487 8.44328 13.5567 9.25137 14.5536 9.25137H19.1951C20.1919 9.25137 21 8.44328 21 7.44645V2.80492C21 1.80809 20.1919 1 19.1951 1Z" stroke="#402110" stroke-width="2" stroke-linecap="round" stroke-linejoin="round"/>
<path d="M7.44645 12.7487H2.80492C1.80809 12.7487 1 13.5567 1 14.5536V19.1951C1 20.1919 1.80809 21 2.80492 21H7.44645C8.44328 21 9.25137 20.1919 9.25137 19.1951V14.5536C9.25137 13.5567 8.44328 12.7487 7.44645 12.7487Z" stroke="#402110" stroke-width="2" stroke-linecap="round" stroke-linejoin="round"/>
<path d="M19.1951 12.7487H14.5536C13.5567 12.7487 12.7487 13.5567 12.7487 14.5536V19.1951C12.7487 20.1919 13.5567 21 14.5536 21H19.1951C20.1919 21 21 20.1919 21 19.1951V14.5536C21 13.5567 20.1919 12.7487 19.1951 12.7487Z" stroke="#402110" stroke-width="2" stroke-linecap="round" stroke-linejoin="round"/>
</svg>
